<svg xmlns="http://www.w3.org/2000/svg" viewBox="0 0 720 840" role="img" aria-labelledby="title desc">
  <title id="title">Abstraktní rose-gold vlasová kompozice</title>
  <desc id="desc">Elegantní vizuál s vlasovými liniemi, gradientem a salonními akcenty.</desc>
  <defs>
    <linearGradient id="bg" x1="80" x2="630" y1="70" y2="790" gradientUnits="userSpaceOnUse">
      <stop stop-color="#fff8ef"/>
      <stop offset=".42" stop-color="#ecd3bd"/>
      <stop offset="1" stop-color="#6c4035"/>
    </linearGradient>
    <radialGradient id="shine" cx="50%" cy="18%" r="70%">
      <stop stop-color="#fff4de" stop-opacity=".9"/>
      <stop offset=".5" stop-color="#d89475" stop-opacity=".35"/>
      <stop offset="1" stop-color="#2b1d18" stop-opacity=".18"/>
    </radialGradient>
    <filter id="soft" x="-20%" y="-20%" width="140%" height="140%">
      <feGaussianBlur stdDeviation="14"/>
    </filter>
  </defs>
  <rect x="54" y="34" width="604" height="772" rx="38" fill="url(#bg)"/>
  <rect x="82" y="66" width="548" height="708" rx="30" fill="none" stroke="#fffaf4" stroke-opacity=".42"/>
  <circle cx="528" cy="142" r="128" fill="url(#shine)" filter="url(#soft)"/>
  <path d="M412 106c-87 65-138 138-152 220-16 92 24 145-1 233-19 67-63 111-129 154" fill="none" stroke="#2b1d18" stroke-width="13" stroke-linecap="round" opacity=".72"/>
  <path d="M457 95c-112 86-177 174-193 264-17 95 38 155 15 243-17 64-61 111-132 156" fill="none" stroke="#fff1df" stroke-width="8" stroke-linecap="round" opacity=".8"/>
  <path d="M512 122c-100 64-151 142-155 234-4 89 42 145 31 219-11 75-59 127-145 158" fill="none" stroke="#b97962" stroke-width="5" stroke-linecap="round"/>
  <path d="M228 270c86-55 167-67 243-36" fill="none" stroke="#fffaf4" stroke-width="4" stroke-linecap="round" opacity=".8"/>
  <path d="M209 475c112-48 213-54 303-17" fill="none" stroke="#2b1d18" stroke-width="3" stroke-linecap="round" opacity=".36"/>
  <g fill="none" stroke="#fff6ea" stroke-linecap="round" opacity=".78">
    <path d="M169 159h100"/>
    <path d="M145 184h66"/>
    <path d="M482 649h82"/>
    <path d="M501 675h46"/>
  </g>
  <g transform="translate(96 605)">
    <rect width="222" height="102" rx="8" fill="#211715" fill-opacity=".76"/>
    <path d="M36 70 188 28" stroke="#e8b999" stroke-width="4" stroke-linecap="round"/>
    <path d="M37 28c13 31 27 45 44 42 16-4 20-31 39-37 23-8 44 10 62 37" fill="none" stroke="#fff3e7" stroke-width="3" stroke-linecap="round"/>
  </g>
</svg>
